<?xml version="1.0" encoding="UTF-8"?>
<!DOCTYPE svg PUBLIC "-//W3C//DTD SVG 1.1//EN" "http://www.w3.org/Graphics/SVG/1.1/DTD/svg11.dtd">
<svg xmlns="http://www.w3.org/2000/svg" version="1.1" width="2420px" height="2129px" style="shape-rendering:geometricPrecision; text-rendering:geometricPrecision; image-rendering:optimizeQuality; fill-rule:evenodd; clip-rule:evenodd" xmlns:xlink="http://www.w3.org/1999/xlink">
<g><path style="opacity:1" fill="#013920" d="M 1784.5,195.5 C 1784.28,197.774 1783.62,199.941 1782.5,202C 1783.04,204.975 1783.37,207.975 1783.5,211C 1782.68,311.159 1782.18,411.326 1782,511.5C 1780.36,513.637 1778.36,515.303 1776,516.5C 1736.39,516.097 1696.72,515.43 1657,514.5C 1652.5,514.667 1648,514.833 1643.5,515C 1641.39,515.36 1639.39,516.027 1637.5,517C 1636.51,542.092 1636.17,567.259 1636.5,592.5C 1639.52,592.335 1642.52,592.502 1645.5,593C 1648.97,595.686 1652.97,597.186 1657.5,597.5C 1657.5,598.5 1657.5,599.5 1657.5,600.5C 1660.52,600.335 1663.52,600.502 1666.5,601C 1667.34,602.011 1667.67,603.178 1667.5,604.5C 1669.86,604.337 1672.19,604.503 1674.5,605C 1675.34,606.011 1675.67,607.178 1675.5,608.5C 1679.22,607.772 1682.22,608.772 1684.5,611.5C 1687.75,611.708 1690.08,613.208 1691.5,616C 1693.47,616.495 1695.47,616.662 1697.5,616.5C 1697.5,617.5 1697.5,618.5 1697.5,619.5C 1700.55,618.923 1702.55,620.09 1703.5,623C 1705.17,623.333 1706.83,623.667 1708.5,624C 1710.5,626.333 1712.5,628.667 1714.5,631C 1715.45,631.483 1716.45,631.649 1717.5,631.5C 1717.33,632.822 1717.66,633.989 1718.5,635C 1722.14,633.569 1724.64,634.736 1726,638.5C 1730.22,643.385 1735.05,647.552 1740.5,651C 1759.05,669.181 1775.55,688.681 1790,709.5C 1790.2,711.256 1790.7,712.922 1791.5,714.5C 1794.07,719.411 1797.07,724.078 1800.5,728.5C 1801.55,731.08 1802.22,733.746 1802.5,736.5C 1803.5,736.5 1804.5,736.5 1805.5,736.5C 1805.38,738.734 1805.71,740.901 1806.5,743C 1809.51,749.728 1812.67,756.228 1816,762.5C 1815.94,767.629 1817.61,771.962 1821,775.5C 1821.5,778.817 1821.67,782.15 1821.5,785.5C 1822.5,785.5 1823.5,785.5 1824.5,785.5C 1824.41,790.537 1824.75,795.537 1825.5,800.5C 1826.5,800.5 1827.5,800.5 1828.5,800.5C 1828.17,1133.01 1828.5,1465.51 1829.5,1798C 1829.33,1812.36 1827.67,1826.53 1824.5,1840.5C 1800.62,1932.21 1745.95,1998.37 1660.5,2039C 1630.43,2052.68 1599.1,2062.35 1566.5,2068C 1328.84,2067.22 1091.17,2066.22 853.5,2065C 765.707,2053.87 696.874,2012.04 647,1939.5C 631.193,1915.22 618.026,1889.55 607.5,1862.5C 603.486,1848.08 600.652,1833.42 599,1818.5C 598.333,1494.5 598.333,1170.5 599,846.5C 600.724,836.216 602.057,825.882 603,815.5C 603.667,814.167 604.333,812.833 605,811.5C 605.333,806.167 605.667,800.833 606,795.5C 606.71,794.027 607.876,793.36 609.5,793.5C 609.5,789.167 609.5,784.833 609.5,780.5C 610.833,780.5 612.167,780.5 613.5,780.5C 613.334,776.154 613.501,771.821 614,767.5C 616.907,765.267 618.074,762.267 617.5,758.5C 618.822,758.67 619.989,758.337 621,757.5C 621.176,754.118 621.676,750.785 622.5,747.5C 624.167,747.167 625.167,746.167 625.5,744.5C 624.954,742.865 624.62,741.199 624.5,739.5C 628.266,739.427 629.599,737.761 628.5,734.5C 628.728,732.603 629.728,731.27 631.5,730.5C 632.474,728.257 632.808,725.924 632.5,723.5C 633.822,723.67 634.989,723.337 636,722.5C 635.775,719.175 637.108,716.842 640,715.5C 642.207,712.576 643.707,709.243 644.5,705.5C 647.918,702.41 650.585,698.744 652.5,694.5C 657.749,690.21 661.583,684.877 664,678.5C 666.556,677.781 667.723,676.114 667.5,673.5C 673.342,670.526 677.342,665.859 679.5,659.5C 685.951,653.114 692.951,647.447 700.5,642.5C 702.656,640.371 704.323,638.038 705.5,635.5C 706.552,635.649 707.552,635.483 708.5,635C 715.236,629.979 721.902,624.979 728.5,620C 729.793,619.51 731.127,619.343 732.5,619.5C 732.33,618.178 732.663,617.011 733.5,616C 735.207,615.805 736.874,615.805 738.5,616C 739.167,615 739.833,614 740.5,613C 748.693,609.941 756.36,605.941 763.5,601C 769.167,599.333 774.833,597.667 780.5,596C 783.212,593.315 786.545,592.148 790.5,592.5C 791.083,567.802 791.75,543.135 792.5,518.5C 792.291,517.914 791.957,517.414 791.5,517C 745.207,515.469 698.874,514.303 652.5,513.5C 652.004,446.507 652.004,379.507 652.5,312.5C 652.475,265.765 651.809,219.098 650.5,172.5C 669.768,124.122 700.434,84.6216 742.5,54C 764.458,39.5668 788.458,30.2335 814.5,26C 1085.48,24.34 1356.48,24.0067 1627.5,25C 1698.79,47.6239 1747.29,94.1239 1773,164.5C 1776.65,175.085 1779.98,185.751 1783,196.5C 1783.38,195.944 1783.88,195.611 1784.5,195.5 Z"/></g>
<g><path style="opacity:1" fill="#50b687" d="M 1369.5,216.5 C 1365.87,213.935 1362.2,213.935 1358.5,216.5C 1354.76,215.599 1352.76,216.932 1352.5,220.5C 1351.45,220.351 1350.45,220.517 1349.5,221C 1348.65,223.362 1347.15,225.195 1345,226.5C 1344.07,230.903 1343.07,235.236 1342,239.5C 1341.5,309.833 1341.33,380.166 1341.5,450.5C 1320.52,451.442 1299.52,451.775 1278.5,451.5C 1279.82,378.162 1279.82,304.829 1278.5,231.5C 1277.5,231.5 1276.5,231.5 1275.5,231.5C 1275.63,229.345 1275.13,227.345 1274,225.5C 1270.06,221.346 1265.56,218.346 1260.5,216.5C 1258.9,214.431 1256.74,213.431 1254,213.5C 1251.99,213.307 1250.49,213.974 1249.5,215.5C 1244.02,216.493 1239.52,219.159 1236,223.5C 1233.49,228.329 1231.49,233.329 1230,238.5C 1229.33,244.319 1228.83,250.153 1228.5,256C 1230.44,279.17 1230.78,302.337 1229.5,325.5C 1229.33,365.501 1229.5,405.501 1230,445.5C 1230.23,446.737 1230.73,447.737 1231.5,448.5C 1231.5,449.5 1231.5,450.5 1231.5,451.5C 1210.45,451.822 1189.45,451.488 1168.5,450.5C 1167.5,377.503 1167.17,304.503 1167.5,231.5C 1166.32,231.719 1165.32,231.386 1164.5,230.5C 1161.88,225.722 1158.71,221.389 1155,217.5C 1154.67,217.833 1154.33,218.167 1154,218.5C 1152.21,216.771 1150.04,216.104 1147.5,216.5C 1144.81,213.858 1141.47,212.858 1137.5,213.5C 1137.5,214.5 1137.5,215.5 1137.5,216.5C 1135.08,216.292 1132.75,216.626 1130.5,217.5C 1129.59,219.918 1128.09,221.918 1126,223.5C 1124.99,225.025 1124.49,226.692 1124.5,228.5C 1123.5,228.5 1122.5,228.5 1121.5,228.5C 1120.84,236.336 1119.68,243.336 1118,249.5C 1117.2,316.509 1117.37,383.509 1118.5,450.5C 1098.18,451.594 1077.85,451.76 1057.5,451C 1057,450.5 1056.5,450 1056,449.5C 1055.67,376.833 1055.33,304.167 1055,231.5C 1051.74,223.398 1045.9,218.398 1037.5,216.5C 1035.25,215.131 1032.75,214.131 1030,213.5C 1028.62,213.684 1027.79,214.351 1027.5,215.5C 1024.95,216.388 1022.28,216.721 1019.5,216.5C 1018.18,219.024 1017.01,221.69 1016,224.5C 1015.33,223.167 1014.67,223.167 1014,224.5C 1014.27,227.901 1012.77,229.567 1009.5,229.5C 1009.5,303.167 1009.5,376.833 1009.5,450.5C 989.167,450.5 968.833,450.5 948.5,450.5C 948.833,378.331 948.499,306.331 947.5,234.5C 945.203,231.622 943.87,228.289 943.5,224.5C 942.448,224.649 941.448,224.483 940.5,224C 937.924,218.626 933.591,216.126 927.5,216.5C 927.441,214.278 926.275,213.278 924,213.5C 921.694,214.334 919.527,215.334 917.5,216.5C 915.409,216.318 913.409,216.652 911.5,217.5C 910.614,218.325 910.281,219.325 910.5,220.5C 907.5,220.167 906.167,221.5 906.5,224.5C 905.448,224.351 904.448,224.517 903.5,225C 902.736,227.069 902.236,229.236 902,231.5C 900.989,232.337 899.822,232.67 898.5,232.5C 897.859,270.155 897.525,307.822 897.5,345.5C 897.503,380.879 898.17,416.046 899.5,451C 879.5,451.667 859.5,451.667 839.5,451C 837.741,445.792 836.907,440.292 837,434.5C 836.667,366.833 836.333,299.167 836,231.5C 833.713,227.82 831.213,224.32 828.5,221C 826.108,220.428 824.108,219.262 822.5,217.5C 820.547,216.844 818.547,216.511 816.5,216.5C 815.809,214.978 814.642,213.978 813,213.5C 809.67,213.721 806.836,214.721 804.5,216.5C 802.5,216.833 800.5,217.167 798.5,217.5C 798.5,218.5 798.5,219.5 798.5,220.5C 797.178,220.33 796.011,220.663 795,221.5C 794.489,223.878 793.822,226.212 793,228.5C 791.984,227.366 791.317,227.699 791,229.5C 790.522,236.841 790.022,244.174 789.5,251.5C 788.707,278.666 788.707,305.999 789.5,333.5C 789.353,372.502 789.02,411.502 788.5,450.5C 764.219,451.225 739.886,451.392 715.5,451C 713.835,449.174 712.835,447.007 712.5,444.5C 712.5,411.167 712.5,377.833 712.5,344.5C 712.136,289.093 712.636,233.76 714,178.5C 716.629,173.606 718.295,168.273 719,162.5C 719.333,162.833 719.667,163.167 720,163.5C 722.333,157.167 724.667,150.833 727,144.5C 732.361,139.127 737.028,133.127 741,126.5C 752.364,114.588 765.197,104.755 779.5,97C 780.793,96.51 782.127,96.3433 783.5,96.5C 783.089,93.7237 783.922,93.057 786,94.5C 788.368,93.2827 790.868,92.4494 793.5,92C 792.167,91.3333 792.167,90.6667 793.5,90C 796.641,90.751 799.807,90.5843 803,89.5C 805.81,87.5757 808.976,86.2424 812.5,85.5C 814.968,86.0427 817.468,86.3761 820,86.5C 832.822,85.7781 845.656,85.2781 858.5,85C 1107.5,84.1788 1356.5,84.5122 1605.5,86C 1629.25,87.9464 1650.58,96.2797 1669.5,111C 1700.4,135.64 1716.24,167.807 1717,207.5C 1717.67,285.167 1717.67,362.833 1717,440.5C 1716.79,443.758 1716.29,446.924 1715.5,450C 1687.84,450.5 1660.17,450.667 1632.5,450.5C 1632.67,378.166 1632.5,305.833 1632,233.5C 1631.19,230.554 1629.86,227.888 1628,225.5C 1618.07,215.669 1606.23,212.502 1592.5,216C 1584.39,223.72 1580.23,233.22 1580,244.5C 1579.5,313.166 1579.33,381.833 1579.5,450.5C 1556.26,450.763 1533.09,450.763 1510,450.5C 1509.67,381.167 1509.33,311.833 1509,242.5C 1507,234.318 1503.17,227.152 1497.5,221C 1495.96,220.71 1494.62,220.044 1493.5,219C 1493.83,218.667 1494.17,218.333 1494.5,218C 1490.17,217 1485.83,216 1481.5,215C 1481.83,214.667 1482.17,214.333 1482.5,214C 1480.19,213.503 1477.86,213.337 1475.5,213.5C 1475.5,214.5 1475.5,215.5 1475.5,216.5C 1473.14,216.337 1470.81,216.503 1468.5,217C 1467.62,218.356 1467.29,219.856 1467.5,221.5C 1466.17,221.5 1464.83,221.5 1463.5,221.5C 1463.81,223.924 1463.47,226.257 1462.5,228.5C 1460.9,227.45 1460.06,228.117 1460,230.5C 1458.59,241.458 1457.76,252.458 1457.5,263.5C 1460.11,314.793 1460.11,365.96 1457.5,417C 1457.77,428.171 1458.1,439.338 1458.5,450.5C 1435.83,451.378 1413.16,451.378 1390.5,450.5C 1390.83,378.83 1390.5,307.164 1389.5,235.5C 1387.76,232.004 1386.09,228.504 1384.5,225C 1381.38,222.268 1378.05,219.768 1374.5,217.5C 1372.93,216.691 1371.26,216.357 1369.5,216.5 Z"/></g>
<g><path style="opacity:1" fill="#50b687" d="M 650.5,172.5 C 651.809,219.098 652.475,265.765 652.5,312.5C 652.004,379.507 652.004,446.507 652.5,513.5C 698.874,514.303 745.207,515.469 791.5,517C 791.957,517.414 792.291,517.914 792.5,518.5C 791.75,543.135 791.083,567.802 790.5,592.5C 786.545,592.148 783.212,593.315 780.5,596C 774.833,597.667 769.167,599.333 763.5,601C 756.36,605.941 748.693,609.941 740.5,613C 739.833,614 739.167,615 738.5,616C 736.874,615.805 735.207,615.805 733.5,616C 732.663,617.011 732.33,618.178 732.5,619.5C 731.127,619.343 729.793,619.51 728.5,620C 721.902,624.979 715.236,629.979 708.5,635C 707.552,635.483 706.552,635.649 705.5,635.5C 704.323,638.038 702.656,640.371 700.5,642.5C 692.951,647.447 685.951,653.114 679.5,659.5C 677.342,665.859 673.342,670.526 667.5,673.5C 667.723,676.114 666.556,677.781 664,678.5C 661.583,684.877 657.749,690.21 652.5,694.5C 650.585,698.744 647.918,702.41 644.5,705.5C 643.707,709.243 642.207,712.576 640,715.5C 637.108,716.842 635.775,719.175 636,722.5C 634.989,723.337 633.822,723.67 632.5,723.5C 632.808,725.924 632.474,728.257 631.5,730.5C 629.728,731.27 628.728,732.603 628.5,734.5C 629.599,737.761 628.266,739.427 624.5,739.5C 624.62,741.199 624.954,742.865 625.5,744.5C 625.167,746.167 624.167,747.167 622.5,747.5C 621.676,750.785 621.176,754.118 621,757.5C 619.989,758.337 618.822,758.67 617.5,758.5C 618.074,762.267 616.907,765.267 614,767.5C 613.501,771.821 613.334,776.154 613.5,780.5C 612.167,780.5 610.833,780.5 609.5,780.5C 609.5,784.833 609.5,789.167 609.5,793.5C 607.876,793.36 606.71,794.027 606,795.5C 605.667,800.833 605.333,806.167 605,811.5C 604.333,812.833 603.667,814.167 603,815.5C 602.057,825.882 600.724,836.216 599,846.5C 598.333,1170.5 598.333,1494.5 599,1818.5C 600.652,1833.42 603.486,1848.08 607.5,1862.5C 451.893,1750.04 336.393,1605.37 261,1428.5C 176.749,1221.91 160.083,1009.91 211,792.5C 270.512,560.827 394.012,371.66 581.5,225C 602.948,208.887 624.948,193.554 647.5,179C 648.926,176.955 649.926,174.788 650.5,172.5 Z"/></g>
<g><path style="opacity:1" fill="#50b687" d="M 1824.5,1840.5 C 1827.67,1826.53 1829.33,1812.36 1829.5,1798C 1828.5,1465.51 1828.17,1133.01 1828.5,800.5C 1827.5,800.5 1826.5,800.5 1825.5,800.5C 1824.75,795.537 1824.41,790.537 1824.5,785.5C 1823.5,785.5 1822.5,785.5 1821.5,785.5C 1821.67,782.15 1821.5,778.817 1821,775.5C 1817.61,771.962 1815.94,767.629 1816,762.5C 1812.67,756.228 1809.51,749.728 1806.5,743C 1805.71,740.901 1805.38,738.734 1805.5,736.5C 1804.5,736.5 1803.5,736.5 1802.5,736.5C 1802.22,733.746 1801.55,731.08 1800.5,728.5C 1797.07,724.078 1794.07,719.411 1791.5,714.5C 1790.7,712.922 1790.2,711.256 1790,709.5C 1775.55,688.681 1759.05,669.181 1740.5,651C 1735.05,647.552 1730.22,643.385 1726,638.5C 1724.64,634.736 1722.14,633.569 1718.5,635C 1717.66,633.989 1717.33,632.822 1717.5,631.5C 1716.45,631.649 1715.45,631.483 1714.5,631C 1712.5,628.667 1710.5,626.333 1708.5,624C 1706.83,623.667 1705.17,623.333 1703.5,623C 1702.55,620.09 1700.55,618.923 1697.5,619.5C 1697.5,618.5 1697.5,617.5 1697.5,616.5C 1695.47,616.662 1693.47,616.495 1691.5,616C 1690.08,613.208 1687.75,611.708 1684.5,611.5C 1682.22,608.772 1679.22,607.772 1675.5,608.5C 1675.67,607.178 1675.34,606.011 1674.5,605C 1672.19,604.503 1669.86,604.337 1667.5,604.5C 1667.67,603.178 1667.34,602.011 1666.5,601C 1663.52,600.502 1660.52,600.335 1657.5,600.5C 1657.5,599.5 1657.5,598.5 1657.5,597.5C 1652.97,597.186 1648.97,595.686 1645.5,593C 1642.52,592.502 1639.52,592.335 1636.5,592.5C 1636.17,567.259 1636.51,542.092 1637.5,517C 1639.39,516.027 1641.39,515.36 1643.5,515C 1648,514.833 1652.5,514.667 1657,514.5C 1696.72,515.43 1736.39,516.097 1776,516.5C 1778.36,515.303 1780.36,513.637 1782,511.5C 1782.18,411.326 1782.68,311.159 1783.5,211C 1783.37,207.975 1783.04,204.975 1782.5,202C 1783.62,199.941 1784.28,197.774 1784.5,195.5C 1784.37,194.761 1784.54,194.094 1785,193.5C 1785.24,195.764 1785.74,197.931 1786.5,200C 1961,323.534 2085.5,485.7 2160,686.5C 2222.44,862.274 2236.78,1041.94 2203,1225.5C 2155.87,1459.02 2043.04,1653.52 1864.5,1809C 1854.5,1817 1844.5,1825 1834.5,1833C 1832.44,1834.53 1831.1,1836.53 1830.5,1839C 1828.77,1840.85 1827.6,1840.69 1827,1838.5C 1826.29,1839.38 1825.46,1840.05 1824.5,1840.5 Z"/></g>
<g><path style="opacity:1" fill="#6b987a" d="M 816.5,216.5 C 812.484,215.257 808.484,215.257 804.5,216.5C 806.836,214.721 809.67,213.721 813,213.5C 814.642,213.978 815.809,214.978 816.5,216.5 Z"/></g>
<g><path style="opacity:1" fill="#698f78" d="M 927.5,216.5 C 924.269,215.632 920.935,215.632 917.5,216.5C 919.527,215.334 921.694,214.334 924,213.5C 926.275,213.278 927.441,214.278 927.5,216.5 Z"/></g>
<g><path style="opacity:1" fill="#688e76" d="M 1037.5,216.5 C 1034.17,216.167 1030.83,215.833 1027.5,215.5C 1027.79,214.351 1028.62,213.684 1030,213.5C 1032.75,214.131 1035.25,215.131 1037.5,216.5 Z"/></g>
<g><path style="opacity:1" fill="#617a68" d="M 1147.5,216.5 C 1144.17,216.5 1140.83,216.5 1137.5,216.5C 1137.5,215.5 1137.5,214.5 1137.5,213.5C 1141.47,212.858 1144.81,213.858 1147.5,216.5 Z"/></g>
<g><path style="opacity:1" fill="#658a72" d="M 1260.5,216.5 C 1256.88,215.756 1253.21,215.423 1249.5,215.5C 1250.49,213.974 1251.99,213.307 1254,213.5C 1256.74,213.431 1258.9,214.431 1260.5,216.5 Z"/></g>
<g><path style="opacity:1" fill="#608d72" d="M 1369.5,216.5 C 1365.83,216.5 1362.17,216.5 1358.5,216.5C 1362.2,213.935 1365.87,213.935 1369.5,216.5 Z"/></g>
<g><path style="opacity:1" fill="#21503b" d="M 789.5,251.5 C 790.083,279.003 790.083,306.336 789.5,333.5C 788.707,305.999 788.707,278.666 789.5,251.5 Z"/></g>
<g><path style="opacity:1" fill="#42976e" d="M 1229.5,325.5 C 1230.21,366.343 1230.88,407.343 1231.5,448.5C 1230.73,447.737 1230.23,446.737 1230,445.5C 1229.5,405.501 1229.33,365.501 1229.5,325.5 Z"/></g>
<g><path style="opacity:1" fill="#224f38" d="M 712.5,344.5 C 712.5,377.833 712.5,411.167 712.5,444.5C 711.883,444.611 711.383,444.944 711,445.5C 710.925,411.668 711.425,378.001 712.5,344.5 Z"/></g>
<g><path style="opacity:1" fill="#3a8d67" d="M 947.5,234.5 C 948.499,306.331 948.833,378.331 948.5,450.5C 968.833,450.5 989.167,450.5 1009.5,450.5C 989.576,451.499 968.909,451.833 947.5,451.5C 947.5,379.167 947.5,306.833 947.5,234.5 Z"/></g>
<g><path style="opacity:1" fill="#21704b" d="M 868.5,510.5 C 1001.34,511.593 1134.17,511.593 1267,510.5C 1370.52,511.118 1474.02,511.785 1577.5,512.5C 1577.21,548.215 1578.38,583.882 1581,619.5C 1583.57,626.831 1587.74,632.998 1593.5,638C 1608.01,644.391 1622.67,650.391 1637.5,656C 1699.81,687.312 1740.64,736.478 1760,803.5C 1761.92,811.782 1763.59,820.115 1765,828.5C 1768.24,860.076 1769.74,891.742 1769.5,923.5C 1769.02,957.337 1768.36,991.17 1767.5,1025C 1768.21,1152.83 1768.88,1280.67 1769.5,1408.5C 1768.93,1464.72 1768.27,1520.89 1767.5,1577C 1767.41,1586.56 1768.08,1596.06 1769.5,1605.5C 1769.59,1672.48 1769.09,1739.48 1768,1806.5C 1766.3,1840.27 1757.3,1871.94 1741,1901.5C 1733.67,1912.17 1726.33,1922.83 1719,1933.5C 1706.17,1945.67 1693.33,1957.83 1680.5,1970C 1641.77,1997.68 1598.61,2010.18 1551,2007.5C 1339.61,2006.46 1128.11,2006.46 916.5,2007.5C 872.634,2011.87 830.3,2006.37 789.5,1991C 717.71,1954.34 676.21,1895.84 665,1815.5C 663.526,1799.53 662.526,1783.53 662,1767.5C 663.098,1472.5 663.765,1177.5 664,882.5C 662.815,845.422 668.482,809.422 681,774.5C 686.774,759.617 694.107,745.617 703,732.5C 713.079,722.426 722.412,711.759 731,700.5C 753.645,676.931 780.479,660.097 811.5,650C 822.989,646.343 833.156,640.509 842,632.5C 845.662,628.503 847.995,623.836 849,618.5C 849.5,582.835 849.667,547.168 849.5,511.5C 856.022,511.823 862.355,511.49 868.5,510.5 Z"/></g>
<g><path style="opacity:1" fill="#fefefe" d="M 843.5,676.5 C 853.839,676.334 864.172,676.5 874.5,677C 888.539,678.37 896.873,686.036 899.5,700C 898.346,713 891.68,721.667 879.5,726C 829.567,721.042 793.067,740.542 770,784.5C 754.029,803.959 739.696,802.959 727,781.5C 725,776.167 725,770.833 727,765.5C 743.233,723.6 772.733,695.767 815.5,682C 824.869,679.609 834.202,677.776 843.5,676.5 Z"/></g>
<g><path style="opacity:1" fill="#013920" d="M 1497.5,795.5 C 1527.33,795.95 1556.33,801.117 1584.5,811C 1644.09,835.353 1689.59,875.519 1721,931.5C 1723.63,935.132 1726.63,938.465 1730,941.5C 1733.99,958.414 1737.65,975.414 1741,992.5C 1745.83,1023.36 1747.17,1054.36 1745,1085.5C 1741.24,1101.41 1737.9,1117.41 1735,1133.5C 1729.94,1147.28 1724.61,1160.94 1719,1174.5C 1707.56,1193.05 1694.89,1210.71 1681,1227.5C 1659.97,1249.53 1638.64,1271.19 1617,1292.5C 1609.54,1303.62 1600.38,1313.12 1589.5,1321C 1584.65,1325.89 1580.15,1331.05 1576,1336.5C 1571.42,1341.75 1566.26,1346.25 1560.5,1350C 1555.59,1354.24 1551.42,1359.08 1548,1364.5C 1531.83,1379.33 1516.33,1394.83 1501.5,1411C 1495,1414.83 1489.83,1420 1486,1426.5C 1470.99,1440.84 1456.66,1455.84 1443,1471.5C 1422.31,1491.19 1401.97,1511.19 1382,1531.5C 1371.29,1543.21 1360.96,1555.21 1351,1567.5C 1345.41,1572.05 1339.91,1576.71 1334.5,1581.5C 1324.18,1593.65 1313.02,1604.98 1301,1615.5C 1295.39,1624.9 1287.89,1632.4 1278.5,1638C 1270.5,1646.67 1262.5,1655.33 1254.5,1664C 1245.73,1669.14 1238.56,1675.97 1233,1684.5C 1225.3,1692.53 1217.3,1700.2 1209,1707.5C 1207,1710.17 1205,1712.83 1203,1715.5C 1195.19,1723.07 1187.19,1730.4 1179,1737.5C 1175.33,1742.17 1171.67,1746.83 1168,1751.5C 1149.87,1767.3 1132.7,1784.13 1116.5,1802C 1105.02,1812.57 1093.35,1822.9 1081.5,1833C 1072.67,1839.25 1063.67,1845.25 1054.5,1851C 1038.05,1857.89 1021.39,1864.22 1004.5,1870C 972.281,1878.33 939.614,1880.99 906.5,1878C 891.615,1875.22 876.948,1871.56 862.5,1867C 840.502,1858.17 819.502,1847.5 799.5,1835C 787.352,1824.43 775.018,1814.1 762.5,1804C 741.823,1781.65 724.656,1756.81 711,1729.5C 686.428,1672.2 682.761,1613.54 700,1553.5C 707.915,1529.34 718.248,1506.34 731,1484.5C 736.667,1476.83 742.333,1469.17 748,1461.5C 754.707,1454.46 761.04,1447.13 767,1439.5C 808.826,1397.72 850.159,1355.72 891,1313.5C 967.306,1235.19 1043.64,1156.86 1120,1078.5C 1133.3,1063.53 1146.97,1048.87 1161,1034.5C 1201.7,995.471 1241.36,955.471 1280,914.5C 1303.17,892 1326.33,869.5 1349.5,847C 1393.83,815.612 1443.16,798.446 1497.5,795.5 Z"/></g>
<g><path style="opacity:1" fill="#013920" d="M 887.5,818.5 C 948.834,813.15 999.667,833.15 1040,878.5C 1081.11,932.869 1089.11,991.869 1064,1055.5C 1027.31,1127.44 968.475,1160.27 887.5,1154C 818.777,1142.57 772.61,1104.4 749,1039.5C 730.74,976.102 743.074,919.769 786,870.5C 813.926,841.952 847.76,824.619 887.5,818.5 Z"/></g>
<g><path style="opacity:1" fill="#50b687" d="M 956.5,973.5 C 895.331,973.832 834.331,973.499 773.5,972.5C 777.639,927.359 798.305,892.192 835.5,867C 892.248,835.857 946.582,839.524 998.5,878C 1025.96,903.418 1040.62,934.918 1042.5,972.5C 1013.87,973.476 985.198,973.809 956.5,973.5 Z"/></g>
<g><path style="opacity:1" fill="#fdfefe" d="M 1343.5,1418.5 C 1364.13,1394.7 1386.3,1372.37 1410,1351.5C 1456.94,1301.23 1504.6,1251.56 1553,1202.5C 1573.26,1178.9 1594.26,1155.9 1616,1133.5C 1633.05,1111.73 1643.21,1087.06 1646.5,1059.5C 1648.06,1048.39 1647.39,1037.39 1644.5,1026.5C 1633.05,986.192 1610.05,954.025 1575.5,930C 1556.41,918.557 1535.74,911.724 1513.5,909.5C 1505.68,908.344 1497.68,908.177 1489.5,909C 1486.48,909.098 1483.81,909.932 1481.5,911.5C 1452.81,917.346 1427.48,929.846 1405.5,949C 1316.97,1037.37 1228.63,1125.87 1140.5,1214.5C 1128.7,1203.2 1117.03,1191.7 1105.5,1180C 1169.45,1116.55 1232.78,1052.72 1295.5,988.5C 1312.22,972.782 1328.22,956.449 1343.5,939.5C 1376.88,897.962 1419.55,870.796 1471.5,858C 1529.39,848.966 1580.05,863.966 1623.5,903C 1649.58,928.078 1669.74,957.244 1684,990.5C 1702.53,1041.39 1697.86,1090.06 1670,1136.5C 1659.23,1153.61 1646.56,1169.28 1632,1183.5C 1546.33,1272.5 1460.67,1361.5 1375,1450.5C 1364.3,1439.97 1353.8,1429.3 1343.5,1418.5 Z"/></g>
<g><path style="opacity:1" fill="#a6dac1" d="M 1513.5,909.5 C 1502.75,909.14 1492.09,909.806 1481.5,911.5C 1483.81,909.932 1486.48,909.098 1489.5,909C 1497.68,908.177 1505.68,908.344 1513.5,909.5 Z"/></g>
<g><path style="opacity:1" fill="#51b788" d="M 1513.5,909.5 C 1535.74,911.724 1556.41,918.557 1575.5,930C 1610.05,954.025 1633.05,986.192 1644.5,1026.5C 1645.94,1037.45 1646.61,1048.45 1646.5,1059.5C 1643.21,1087.06 1633.05,1111.73 1616,1133.5C 1594.26,1155.9 1573.26,1178.9 1553,1202.5C 1504.6,1251.56 1456.94,1301.23 1410,1351.5C 1386.3,1372.37 1364.13,1394.7 1343.5,1418.5C 1275.86,1350.53 1208.19,1282.53 1140.5,1214.5C 1228.63,1125.87 1316.97,1037.37 1405.5,949C 1427.48,929.846 1452.81,917.346 1481.5,911.5C 1492.09,909.806 1502.75,909.14 1513.5,909.5 Z"/></g>
<g><path style="opacity:1" fill="#b9f3d8" d="M 1343.5,939.5 C 1328.22,956.449 1312.22,972.782 1295.5,988.5C 1306.11,976.723 1316.94,965.057 1328,953.5C 1332.74,948.256 1337.91,943.59 1343.5,939.5 Z"/></g>
<g><path style="opacity:1" fill="#2f7c59" d="M 773.5,972.5 C 834.331,973.499 895.331,973.832 956.5,973.5C 895.332,974.832 833.999,974.832 772.5,973.5C 772.624,972.893 772.957,972.56 773.5,972.5 Z"/></g>
<g><path style="opacity:1" fill="#89b5a2" d="M 807.5,1024.5 C 807.5,1024.83 807.5,1025.17 807.5,1025.5C 797.804,1025.79 788.137,1026.46 778.5,1027.5C 779.949,1025.84 781.949,1025 784.5,1025C 792.159,1024.5 799.826,1024.33 807.5,1024.5 Z"/></g>
<g><path style="opacity:1" fill="#50b687" d="M 807.5,1024.5 C 874.17,1025.43 940.836,1026.43 1007.5,1027.5C 990.988,1078.49 955.821,1105.15 902,1107.5C 892.507,1107.5 883.341,1105.83 874.5,1102.5C 873.702,1102.96 873.369,1103.62 873.5,1104.5C 871.855,1103.52 870.521,1102.19 869.5,1100.5C 865.194,1099.01 861.194,1097.01 857.5,1094.5C 840.395,1084.23 827.229,1070.23 818,1052.5C 814.17,1043.86 810.67,1035.19 807.5,1026.5C 807.5,1026.17 807.5,1025.83 807.5,1025.5C 807.5,1025.17 807.5,1024.83 807.5,1024.5 Z"/></g>
<g><path style="opacity:1" fill="#f0fdf7" d="M 807.5,1026.5 C 810.67,1035.19 814.17,1043.86 818,1052.5C 827.229,1070.23 840.395,1084.23 857.5,1094.5C 858.413,1096.09 858.413,1097.59 857.5,1099C 864.347,1102.35 866.014,1107.35 862.5,1114C 863.337,1115.01 863.67,1116.18 863.5,1117.5C 861.741,1117.95 859.741,1117.95 857.5,1117.5C 831.881,1107.2 811.548,1090.54 796.5,1067.5C 797.251,1066.43 798.251,1066.26 799.5,1067C 803.44,1072.76 807.94,1077.92 813,1082.5C 814.884,1079.05 814.384,1075.88 811.5,1073C 811.833,1072.67 812.167,1072.33 812.5,1072C 810.548,1069.26 808.048,1067.1 805,1065.5C 803.705,1060.82 801.539,1056.65 798.5,1053C 799.861,1047.94 800.361,1042.77 800,1037.5C 798.833,1035.83 797.667,1034.17 796.5,1032.5C 793.683,1031.9 791.35,1030.57 789.5,1028.5C 795.427,1027.17 801.427,1026.51 807.5,1026.5 Z"/></g>
<g><path style="opacity:1" fill="#e4fdf2" d="M 807.5,1025.5 C 807.5,1025.83 807.5,1026.17 807.5,1026.5C 801.427,1026.51 795.427,1027.17 789.5,1028.5C 791.35,1030.57 793.683,1031.9 796.5,1032.5C 797.667,1034.17 798.833,1035.83 800,1037.5C 800.361,1042.77 799.861,1047.94 798.5,1053C 801.539,1056.65 803.705,1060.82 805,1065.5C 808.048,1067.1 810.548,1069.26 812.5,1072C 812.167,1072.33 811.833,1072.67 811.5,1073C 814.384,1075.88 814.884,1079.05 813,1082.5C 807.94,1077.92 803.44,1072.76 799.5,1067C 798.251,1066.26 797.251,1066.43 796.5,1067.5C 789.162,1054.84 783.162,1041.5 778.5,1027.5C 788.137,1026.46 797.804,1025.79 807.5,1025.5 Z"/></g>
<g><path style="opacity:1" fill="#267551" d="M 1007.5,1027.5 C 1016.79,1028.2 1026.12,1029.03 1035.5,1030C 1036,1030.5 1036.5,1031 1037,1031.5C 1031.51,1053.02 1020.84,1071.69 1005,1087.5C 994.948,1097.76 983.782,1106.42 971.5,1113.5C 959.216,1118.76 946.549,1122.93 933.5,1126C 916.856,1127.61 900.19,1127.78 883.5,1126.5C 882.209,1126.74 881.209,1126.4 880.5,1125.5C 882.344,1124.8 882.844,1123.46 882,1121.5C 879.443,1115.97 876.61,1110.64 873.5,1105.5C 873.5,1105.17 873.5,1104.83 873.5,1104.5C 873.369,1103.62 873.702,1102.96 874.5,1102.5C 883.341,1105.83 892.507,1107.5 902,1107.5C 955.821,1105.15 990.988,1078.49 1007.5,1027.5 Z"/></g>
<g><path style="opacity:1" fill="#a4d9c0" d="M 1644.5,1026.5 C 1647.39,1037.39 1648.06,1048.39 1646.5,1059.5C 1646.61,1048.45 1645.94,1037.45 1644.5,1026.5 Z"/></g>
<g><path style="opacity:1" fill="#ddfef0" d="M 857.5,1094.5 C 861.194,1097.01 865.194,1099.01 869.5,1100.5C 870.521,1102.19 871.855,1103.52 873.5,1104.5C 873.5,1104.83 873.5,1105.17 873.5,1105.5C 874.39,1107.78 874.556,1110.12 874,1112.5C 869.82,1111.96 867.153,1113.96 866,1118.5C 865.329,1117.75 864.496,1117.41 863.5,1117.5C 863.67,1116.18 863.337,1115.01 862.5,1114C 866.014,1107.35 864.347,1102.35 857.5,1099C 858.413,1097.59 858.413,1096.09 857.5,1094.5 Z"/></g>
<g><path style="opacity:1" fill="#c2f5e0" d="M 873.5,1105.5 C 876.61,1110.64 879.443,1115.97 882,1121.5C 882.844,1123.46 882.344,1124.8 880.5,1125.5C 872.64,1123.21 864.974,1120.55 857.5,1117.5C 859.741,1117.95 861.741,1117.95 863.5,1117.5C 864.496,1117.41 865.329,1117.75 866,1118.5C 867.153,1113.96 869.82,1111.96 874,1112.5C 874.556,1110.12 874.39,1107.78 873.5,1105.5 Z"/></g>
<g><path style="opacity:1" fill="#0f5233" d="M 971.5,1113.5 C 953.417,1124.27 933.75,1129.27 912.5,1128.5C 902.643,1128.36 892.976,1127.7 883.5,1126.5C 900.19,1127.78 916.856,1127.61 933.5,1126C 946.549,1122.93 959.216,1118.76 971.5,1113.5 Z"/></g>
<g><path style="opacity:1" fill="#fefefe" d="M 1094.5,1260.5 C 1075.73,1279.77 1056.73,1298.94 1037.5,1318C 1031.43,1322.06 1025.93,1326.9 1021,1332.5C 975.729,1381.11 929.729,1429.11 883,1476.5C 864.365,1498.07 845.032,1519.07 825,1539.5C 783.401,1589.69 779.401,1642.69 813,1698.5C 829.482,1723.65 850.982,1743.15 877.5,1757C 890.527,1762.95 904.193,1766.78 918.5,1768.5C 927.657,1769.66 936.991,1769.82 946.5,1769C 950.465,1768.89 954.132,1768.06 957.5,1766.5C 985.542,1759.48 1010.54,1746.65 1032.5,1728C 1120.71,1639.63 1209.04,1551.46 1297.5,1463.5C 1308.27,1474.77 1319.27,1485.94 1330.5,1497C 1251.97,1575.19 1173.81,1653.69 1096,1732.5C 1066.06,1770.11 1028.56,1797.27 983.5,1814C 913.111,1832.53 852.611,1815.7 802,1763.5C 721.032,1674.73 720.199,1585.39 799.5,1495.5C 800.922,1495.29 802.255,1494.79 803.5,1494C 826.569,1469.99 849.736,1446.15 873,1422.5C 876.703,1418.62 879.87,1414.29 882.5,1409.5C 942.426,1348.91 1002.09,1287.91 1061.5,1226.5C 1072.52,1237.85 1083.52,1249.19 1094.5,1260.5 Z"/></g>
<g><path style="opacity:1" fill="#51b788" d="M 1094.5,1260.5 C 1161.86,1328.53 1229.53,1396.19 1297.5,1463.5C 1209.04,1551.46 1120.71,1639.63 1032.5,1728C 1010.54,1746.65 985.542,1759.48 957.5,1766.5C 944.567,1768.2 931.567,1768.87 918.5,1768.5C 904.193,1766.78 890.527,1762.95 877.5,1757C 850.982,1743.15 829.482,1723.65 813,1698.5C 779.401,1642.69 783.401,1589.69 825,1539.5C 845.032,1519.07 864.365,1498.07 883,1476.5C 929.729,1429.11 975.729,1381.11 1021,1332.5C 1025.93,1326.9 1031.43,1322.06 1037.5,1318C 1056.73,1298.94 1075.73,1279.77 1094.5,1260.5 Z"/></g>
<g><path style="opacity:1" fill="#e8fcf2" d="M 882.5,1409.5 C 879.87,1414.29 876.703,1418.62 873,1422.5C 849.736,1446.15 826.569,1469.99 803.5,1494C 802.255,1494.79 800.922,1495.29 799.5,1495.5C 805.458,1488.37 811.625,1481.37 818,1474.5C 839.729,1452.94 861.229,1431.27 882.5,1409.5 Z"/></g>
<g><path style="opacity:1" fill="#013920" d="M 1500.5,1537.5 C 1569.64,1536.14 1622.47,1564.48 1659,1622.5C 1689.82,1681.4 1688.82,1739.73 1656,1797.5C 1614.18,1858.48 1556.35,1884.31 1482.5,1875C 1411.14,1859.64 1365.64,1816.81 1346,1746.5C 1332.53,1675.23 1353.7,1616.73 1409.5,1571C 1436.79,1551.41 1467.12,1540.24 1500.5,1537.5 Z"/></g>
<g><path style="opacity:1" fill="#50b687" d="M 1591.5,1691.5 C 1520.16,1692.16 1449.16,1691.5 1378.5,1689.5C 1383.01,1642.27 1405.34,1606.44 1445.5,1582C 1501.19,1554.21 1553.85,1558.88 1603.5,1596C 1630.55,1621.44 1645.55,1652.77 1648.5,1690C 1629.65,1691.49 1610.65,1691.99 1591.5,1691.5 Z"/></g>
<g><path style="opacity:1" fill="#3e9a70" d="M 1378.5,1689.5 C 1449.16,1691.5 1520.16,1692.16 1591.5,1691.5C 1520.34,1692.5 1449,1692.83 1377.5,1692.5C 1377.26,1691.21 1377.6,1690.21 1378.5,1689.5 Z"/></g>
<g><path style="opacity:1" fill="#86af9e" d="M 1412.5,1743.5 C 1412.5,1743.83 1412.5,1744.17 1412.5,1744.5C 1402.45,1744.51 1392.45,1745.17 1382.5,1746.5C 1384.03,1744.87 1386.03,1744.04 1388.5,1744C 1396.49,1743.5 1404.49,1743.33 1412.5,1743.5 Z"/></g>
<g><path style="opacity:1" fill="#50b687" d="M 1412.5,1743.5 C 1474.83,1744.37 1537.17,1745.2 1599.5,1746C 1604.35,1746.17 1609.02,1746.67 1613.5,1747.5C 1589.61,1810.6 1544.61,1836.6 1478.5,1825.5C 1478.17,1825.5 1477.83,1825.5 1477.5,1825.5C 1472.53,1822.01 1467.19,1819.01 1461.5,1816.5C 1444.63,1805.79 1431.79,1791.46 1423,1773.5C 1418.98,1764.25 1415.48,1754.92 1412.5,1745.5C 1412.5,1745.17 1412.5,1744.83 1412.5,1744.5C 1412.5,1744.17 1412.5,1743.83 1412.5,1743.5 Z"/></g>
<g><path style="opacity:1" fill="#e3fcf1" d="M 1412.5,1744.5 C 1412.5,1744.83 1412.5,1745.17 1412.5,1745.5C 1405.92,1745.07 1399.58,1745.91 1393.5,1748C 1397.9,1749.78 1401.4,1752.61 1404,1756.5C 1404.2,1761.09 1403.7,1765.59 1402.5,1770C 1404.12,1774.75 1405.62,1779.59 1407,1784.5C 1411.36,1788.03 1415.19,1792.03 1418.5,1796.5C 1418.02,1797.93 1417.36,1799.26 1416.5,1800.5C 1412.18,1795.34 1407.34,1790.68 1402,1786.5C 1401.54,1787.09 1401.37,1787.76 1401.5,1788.5C 1397.17,1782.76 1393.67,1776.42 1391,1769.5C 1388.27,1761.8 1385.43,1754.14 1382.5,1746.5C 1392.45,1745.17 1402.45,1744.51 1412.5,1744.5 Z"/></g>
<g><path style="opacity:1" fill="#f1fef8" d="M 1412.5,1745.5 C 1415.48,1754.92 1418.98,1764.25 1423,1773.5C 1431.79,1791.46 1444.63,1805.79 1461.5,1816.5C 1462.58,1819.31 1463.58,1822.14 1464.5,1825C 1463.48,1825.52 1462.82,1826.35 1462.5,1827.5C 1465.58,1835.59 1464.25,1836.42 1458.5,1830C 1453.45,1828.15 1448.45,1826.15 1443.5,1824C 1441.03,1822.44 1439.03,1820.44 1437.5,1818C 1436.26,1817.69 1435.26,1818.19 1434.5,1819.5C 1428.17,1814 1421.83,1808.5 1415.5,1803C 1414.55,1802.52 1413.55,1802.35 1412.5,1802.5C 1408.1,1798.43 1404.43,1793.77 1401.5,1788.5C 1401.37,1787.76 1401.54,1787.09 1402,1786.5C 1407.34,1790.68 1412.18,1795.34 1416.5,1800.5C 1417.36,1799.26 1418.02,1797.93 1418.5,1796.5C 1415.19,1792.03 1411.36,1788.03 1407,1784.5C 1405.62,1779.59 1404.12,1774.75 1402.5,1770C 1403.7,1765.59 1404.2,1761.09 1404,1756.5C 1401.4,1752.61 1397.9,1749.78 1393.5,1748C 1399.58,1745.91 1405.92,1745.07 1412.5,1745.5 Z"/></g>
<g><path style="opacity:1" fill="#b1dec9" d="M 957.5,1766.5 C 954.132,1768.06 950.465,1768.89 946.5,1769C 936.991,1769.82 927.657,1769.66 918.5,1768.5C 931.567,1768.87 944.567,1768.2 957.5,1766.5 Z"/></g>
<g><path style="opacity:1" fill="#257550" d="M 1613.5,1747.5 C 1621.9,1747.13 1630.24,1747.63 1638.5,1749C 1639.5,1750 1640.5,1751 1641.5,1752C 1638.22,1757.84 1635.72,1764.01 1634,1770.5C 1621.04,1794.79 1603.2,1814.62 1580.5,1830C 1577.6,1830.88 1574.93,1832.04 1572.5,1833.5C 1563.91,1836.75 1555.24,1839.92 1546.5,1843C 1526.97,1846.82 1507.31,1847.66 1487.5,1845.5C 1484.69,1845.98 1482.69,1844.98 1481.5,1842.5C 1482.58,1842.54 1483.58,1842.87 1484.5,1843.5C 1484.83,1842.67 1485.17,1841.83 1485.5,1841C 1483.57,1835.64 1481.24,1830.47 1478.5,1825.5C 1544.61,1836.6 1589.61,1810.6 1613.5,1747.5 Z"/></g>
<g><path style="opacity:1" fill="#e5fbf1" d="M 1412.5,1802.5 C 1413.55,1802.35 1414.55,1802.52 1415.5,1803C 1421.83,1808.5 1428.17,1814 1434.5,1819.5C 1435.26,1818.19 1436.26,1817.69 1437.5,1818C 1439.03,1820.44 1441.03,1822.44 1443.5,1824C 1448.45,1826.15 1453.45,1828.15 1458.5,1830C 1464.25,1836.42 1465.58,1835.59 1462.5,1827.5C 1462.82,1826.35 1463.48,1825.52 1464.5,1825C 1463.58,1822.14 1462.58,1819.31 1461.5,1816.5C 1467.19,1819.01 1472.53,1822.01 1477.5,1825.5C 1478.34,1829.18 1478.84,1832.85 1479,1836.5C 1476.73,1837.59 1474.56,1837.26 1472.5,1835.5C 1470.73,1836.04 1470.4,1836.87 1471.5,1838C 1470.21,1838.49 1468.87,1838.66 1467.5,1838.5C 1458.92,1836.38 1450.92,1832.88 1443.5,1828C 1436.83,1823.33 1430.17,1818.67 1423.5,1814C 1419.63,1810.3 1415.96,1806.46 1412.5,1802.5 Z"/></g>
<g><path style="opacity:1" fill="#bef7de" d="M 1477.5,1825.5 C 1477.83,1825.5 1478.17,1825.5 1478.5,1825.5C 1481.24,1830.47 1483.57,1835.64 1485.5,1841C 1485.17,1841.83 1484.83,1842.67 1484.5,1843.5C 1483.58,1842.87 1482.58,1842.54 1481.5,1842.5C 1476.3,1842.54 1471.63,1841.2 1467.5,1838.5C 1468.87,1838.66 1470.21,1838.49 1471.5,1838C 1470.4,1836.87 1470.73,1836.04 1472.5,1835.5C 1474.56,1837.26 1476.73,1837.59 1479,1836.5C 1478.84,1832.85 1478.34,1829.18 1477.5,1825.5 Z"/></g>
<g><path style="opacity:1" fill="#0e5133" d="M 1572.5,1833.5 C 1555.44,1843.39 1536.94,1848.06 1517,1847.5C 1506.99,1847.14 1497.16,1846.48 1487.5,1845.5C 1507.31,1847.66 1526.97,1846.82 1546.5,1843C 1555.24,1839.92 1563.91,1836.75 1572.5,1833.5 Z"/></g>
<g><path style="opacity:0.011" fill="#0d392d" d="M 890.5,2074.5 C 890.917,2073.88 891.584,2073.54 892.5,2073.5C 894.5,2074 896.5,2074.5 898.5,2075C 895.779,2075.6 893.113,2075.43 890.5,2074.5 Z"/></g>
<g><path style="opacity:0.008" fill="#002e24" d="M 945.5,2115.5 C 957.505,2115.33 969.505,2115.5 981.5,2116C 983.192,2117.4 983.859,2119.23 983.5,2121.5C 970.167,2121.5 956.833,2121.5 943.5,2121.5C 943.259,2119.11 943.925,2117.11 945.5,2115.5 Z"/></g>
<g><path style="opacity:0.013" fill="#013226" d="M 1075.5,2115.5 C 1082.51,2115.33 1089.51,2115.5 1096.5,2116C 1100.73,2116.95 1101.4,2118.95 1098.5,2122C 1083.83,2122.28 1069.17,2122.11 1054.5,2121.5C 1054.23,2119.55 1054.89,2118.05 1056.5,2117C 1063.01,2116.83 1069.35,2116.33 1075.5,2115.5 Z"/></g>
<g><path style="opacity:0.008" fill="#012d25" d="M 1006.5,2115.5 C 1016.84,2115.33 1027.17,2115.5 1037.5,2116C 1039.03,2118.33 1038.7,2120.33 1036.5,2122C 1026.17,2122.21 1015.83,2122.04 1005.5,2121.5C 1005.33,2119.38 1005.66,2117.38 1006.5,2115.5 Z"/></g>
<g><path style="opacity:0.005" fill="#15382d" d="M 1068.5,2128.5 C 1065.17,2128.5 1061.83,2128.5 1058.5,2128.5C 1058.16,2124.87 1059.82,2123.2 1063.5,2123.5C 1067.18,2123.2 1068.84,2124.87 1068.5,2128.5 Z"/></g>
</svg>
